<?xml version="1.0" encoding="UTF-8" standalone="no"?>
<!-- Generator: Adobe Illustrator 26.0.3, SVG Export Plug-In . SVG Version: 6.00 Build 0)  -->

<svg
   version="1.1"
   id="Ebene_1"
   x="0px"
   y="0px"
   viewBox="0 0 421.2 842.2"
   style="enable-background:new 0 0 421.2 842.2;"
   xml:space="preserve"
   sodipodi:docname="sidebar-background.svg"
   inkscape:version="1.2.2 (732a01da63, 2022-12-09)"
   xmlns:inkscape="http://www.inkscape.org/namespaces/inkscape"
   xmlns:sodipodi="http://sodipodi.sourceforge.net/DTD/sodipodi-0.dtd"
   xmlns="http://www.w3.org/2000/svg"
   xmlns:svg="http://www.w3.org/2000/svg"
   xmlns:serif="http://www.serif.com/"><defs
   id="defs5257" /><sodipodi:namedview
   id="namedview5255"
   pagecolor="#505050"
   bordercolor="#eeeeee"
   borderopacity="1"
   inkscape:showpageshadow="0"
   inkscape:pageopacity="0"
   inkscape:pagecheckerboard="0"
   inkscape:deskcolor="#505050"
   showgrid="false"
   inkscape:zoom="1.2194253"
   inkscape:cx="221.00575"
   inkscape:cy="372.30653"
   inkscape:window-width="3440"
   inkscape:window-height="1369"
   inkscape:window-x="2552"
   inkscape:window-y="-8"
   inkscape:window-maximized="1"
   inkscape:current-layer="Ebene_1" />
<style
   type="text/css"
   id="style5151">
	
		.st0{fill-rule:evenodd;clip-rule:evenodd;fill:url(#SVGID_1_);stroke:#000000;stroke-width:0.2736;stroke-linecap:round;stroke-linejoin:round;stroke-miterlimit:3.1571;}
	.st1{fill-rule:evenodd;clip-rule:evenodd;fill:#242424;}
	.st2{fill-rule:evenodd;clip-rule:evenodd;fill:#252525;}
	.st3{fill-rule:evenodd;clip-rule:evenodd;fill:#222222;}
	.st4{fill-rule:evenodd;clip-rule:evenodd;fill:#1F1F1F;}
	.st5{fill-rule:evenodd;clip-rule:evenodd;fill:#1A1A1A;}
	.st6{fill-rule:evenodd;clip-rule:evenodd;fill:#181818;}
	.st7{fill-rule:evenodd;clip-rule:evenodd;fill:#161616;}
	.st8{fill-rule:evenodd;clip-rule:evenodd;fill:#191919;}
	.st9{fill-rule:evenodd;clip-rule:evenodd;fill:#111111;}
	.st10{fill-rule:evenodd;clip-rule:evenodd;fill:#0E0E0E;}
	.st11{fill-rule:evenodd;clip-rule:evenodd;fill:#080808;}
	.st12{fill-rule:evenodd;clip-rule:evenodd;fill:#070707;}
	.st13{fill-rule:evenodd;clip-rule:evenodd;fill:#121212;}
	.st14{fill-rule:evenodd;clip-rule:evenodd;fill:#151515;}
	.st15{fill-rule:evenodd;clip-rule:evenodd;fill:#0D0D0D;}
	.st16{fill-rule:evenodd;clip-rule:evenodd;fill:#1D1D1D;}
	.st17{fill-rule:evenodd;clip-rule:evenodd;fill:#1E1E1E;}
	.st18{fill-rule:evenodd;clip-rule:evenodd;fill:#1B1B1B;}
	.st19{fill-rule:evenodd;clip-rule:evenodd;fill:#101010;}
	.st20{fill-rule:evenodd;clip-rule:evenodd;fill:#0C0C0C;fill-opacity:0.95;}
	.st21{fill-rule:evenodd;clip-rule:evenodd;fill:#1C1C1C;}
	.st22{fill-rule:evenodd;clip-rule:evenodd;fill:#131313;}
	.st23{fill:#282828;}
	.st24{fill:#111111;}
	.st25{fill:#151515;}
</style>
<linearGradient
   id="SVGID_1_"
   gradientUnits="userSpaceOnUse"
   x1="-835.7197"
   y1="120.8877"
   x2="-834.7197"
   y2="120.8877"
   gradientTransform="matrix(-343.9457 -596.4179 596.4179 -343.9457 -359125.625 -456081.7812)">
	<stop
   offset="0"
   style="stop-color:#080808"
   id="stop5153" />
	<stop
   offset="1"
   style="stop-color:#242424"
   id="stop5155" />
</linearGradient>
<rect
   x="0.1"
   y="0.1"
   class="st0"
   width="420.9"
   height="841.9"
   id="rect5158" />
<g
   id="Dreiecke">
	<path
   class="st1"
   d="M147,152.1L0.1,0.1h130L147,152.1z"
   id="path5160" />
	<path
   class="st2"
   d="M147,152.1L0.1,0.1v106.7L147,152.1z"
   id="path5162" />
	<path
   class="st3"
   d="M147,152.1v62.7L0.1,134.3v-27.5L147,152.1z"
   id="path5164" />
	<path
   class="st1"
   d="M0.1,268.5L147,214.8L0.1,134.3V268.5z"
   id="path5166" />
	<path
   class="st4"
   d="M0.1,268.5L147,214.8L99.1,421.1L0.1,268.5z"
   id="path5168" />
	<path
   class="st4"
   d="M0.1,268.5v201l8.4,2.1L99,421.1L0.1,268.5z"
   id="path5170" />
	<path
   class="st5"
   d="M33.8,528.4L8.6,471.6l90.5-50.5L33.8,528.4z"
   id="path5172" />
	<path
   class="st6"
   d="M33.8,528.4l204.2,19L99.1,421.1L33.8,528.4z"
   id="path5174" />
	<path
   class="st7"
   d="M33.8,528.4l204.2,19l-124.2,84.2L33.8,528.4z"
   id="path5176" />
	<path
   class="st8"
   d="M33.8,528.4H0.1v189.4l113.7-86.3L33.8,528.4z"
   id="path5178" />
	<path
   class="st7"
   d="M135.9,732.6L33.8,842H0.1V717.8l113.7-86.3L135.9,732.6z"
   id="path5180" />
	<path
   class="st9"
   d="M135.9,732.6l137.9-14.7L238,547.4l-124.2,84.2L135.9,732.6z"
   id="path5182" />
	<path
   class="st10"
   d="M135.9,732.6l137.9-14.7L256.9,842h-121V732.6z"
   id="path5184" />
	<path
   class="st11"
   d="M421.1,799.9l-147.3-82.1L256.9,842h164.2L421.1,799.9L421.1,799.9z"
   id="path5186" />
	<path
   class="st12"
   d="M421.1,799.9l-147.3-82.1l147.3-128.4L421.1,799.9L421.1,799.9z"
   id="path5188" />
	<path
   class="st13"
   d="M135.9,732.6L33.8,842h102.1V732.6z"
   id="path5190" />
	<path
   class="st14"
   d="M286.4,395.8L238,547.4L99.1,421.1L286.4,395.8z"
   id="path5192" />
	<path
   class="st9"
   d="M286.4,395.8L238,547.4l160-126.3L286.4,395.8z"
   id="path5194" />
	<path
   class="st15"
   d="M273.8,717.8L238,547.4l160-126.3l23.2,37.9v130.5L273.8,717.8z"
   id="path5196" />
	<path
   id="_1"
   serif:id="1"
   class="st16"
   d="M33.8,528.4L8.6,471.6l-8.4-2.1v58.9H33.8z" />
	<path
   class="st17"
   d="M147,152.1l133.5-17.8L181.2,0.1h-51L147,152.1z"
   id="path5199" />
	<path
   class="st18"
   d="M147,152.1l133.5-17.8L147,214.8V152.1z"
   id="path5201" />
	<path
   class="st6"
   d="M290.6,303.2l-10.1-168.9L147,214.8L290.6,303.2z"
   id="path5203" />
	<path
   class="st8"
   d="M290.6,303.2L99.1,421.1L147,214.8L290.6,303.2z"
   id="path5205" />
	<path
   class="st7"
   d="M290.6,303.2L99.1,421.1l187.3-25.3L290.6,303.2z"
   id="path5207" />
	<path
   class="st9"
   d="M290.6,303.2l107.3,117.9l-111.6-25.3L290.6,303.2z"
   id="path5209" />
	<path
   class="st19"
   d="M290.6,303.2l107.3,117.9l23.2-40.5v-65.8L290.6,303.2z"
   id="path5211" />
	<path
   class="st20"
   d="M421.1,459l-23.2-37.9l23.2-40.5V459z"
   id="path5213" />
	<path
   class="st21"
   d="M325.9,0.1l-45.4,134.2L181.2,0.1H325.9z"
   id="path5215" />
	<path
   class="st14"
   d="M325.9,0.1l-45.4,134.2l140.6-24V0.1H325.9z"
   id="path5217" />
	<path
   class="st9"
   d="M421.1,284.8L280.5,134.3l140.6-24V284.8z"
   id="path5219" />
	<path
   class="st22"
   d="M421.1,284.8L280.5,134.3l10.1,168.9l130.5,11.6V284.8z"
   id="path5221" />
</g>

<g
   id="g6488"
   inkscape:label="Logo"
   transform="matrix(0.60460199,0,0,0.60460199,80.625895,290.43664)"><path
     style="fill:#383639;fill-opacity:1;stroke-width:0.651092"
     d="m 183.92439,129.08702 c -2.83534,2.80372 -6.65516,9.65401 -6.65619,11.93685 -4.7e-4,1.03302 -0.88679,1.13942 -9.49308,1.13942 h -9.49256 l 0.42027,-2.11605 c 0.71029,-3.57624 2.96106,-10.34878 4.36646,-13.13858 2.26019,-4.48654 6.77986,-10.42195 9.85483,-12.94168 l 2.92952,-2.40051 5.58736,6.99695 c 3.07306,3.84835 5.54326,7.14352 5.48934,7.32257 -0.054,0.17905 -1.40659,1.61953 -3.00595,3.20103 z"
     id="path3907" /><path
     style="fill:#383639;fill-opacity:1;stroke-width:0.651092"
     d="m 183.92439,448.7731 c -2.83534,2.80372 -6.65516,9.65399 -6.65619,11.93686 -4.7e-4,1.03274 -0.88433,1.13941 -9.44133,1.13941 -5.19247,0 -9.44084,-0.23781 -9.44084,-0.52848 0,-2.03269 3.04859,-11.45472 4.88835,-15.108 2.43077,-4.82686 7.59871,-11.4274 10.64619,-13.59738 l 1.92622,-1.37161 5.59078,7.00132 c 3.07494,3.85072 5.54669,7.1478 5.49277,7.32686 -0.054,0.17904 -1.40659,1.6195 -3.00595,3.20102 z"
     id="path3905" /><path
     style="fill:#466697;fill-opacity:1;stroke-width:0.651092"
     d="m 178.37203,585.23125 c -8.61835,6.08771 -15.90839,11.16624 -16.20012,11.28561 -0.29173,0.11945 -0.53042,-4.59634 -0.53042,-10.47933 0,-12.13106 -0.63479,-10.64693 6.72397,-15.72077 2.44483,-1.68573 5.81423,-4.04647 7.48756,-5.24612 l 3.0424,-2.18118 7.35759,5.39812 c 4.04667,2.96898 7.45457,5.50545 7.57314,5.63663 0.11859,0.13123 -6.83581,5.21933 -15.45412,11.30704 z"
     id="path3903" /><path
     style="fill:#383639;fill-opacity:1;stroke-width:0.651092"
     d="m 204.61355,289.31003 h -9.11529 v -5.12735 c 0,-6.92962 -0.49242,-8.93786 -2.74365,-11.18907 -1.59808,-1.59803 -2.44178,-1.91414 -5.10927,-1.91414 -2.60942,0 -3.58487,0.34801 -5.32141,1.89852 l -2.12633,1.89845 -0.22039,7.21684 -0.22037,7.21675 h -9.05767 -9.05768 l 0.01,-6.34814 c 0.01,-6.60943 1.18267,-13.07993 3.01136,-16.61619 2.00597,-3.87914 7.88004,-9.33567 12.1419,-11.27886 3.60025,-1.64161 4.7592,-1.84103 10.55524,-1.81637 8.19423,0.0347 12.45766,1.54155 17.56159,6.2063 6.22769,5.69176 8.78576,13.27914 8.80268,26.10949 l 0.004,3.74377 z"
     id="path3899" /><path
     style="fill:#383639;fill-opacity:1;stroke-width:0.651092"
     d="m 239.51941,142.16329 c -8.85086,0 -9.51328,-0.0847 -9.51328,-1.21467 0,-2.17947 -4.42683,-10.11915 -7.09047,-12.71701 l -2.6018,-2.53756 5.33445,-7.03778 c 2.93395,-3.87081 5.58887,-7.05055 5.89984,-7.06604 1.10216,-0.0553 8.67994,8.26931 10.99128,12.07417 2.34312,3.85726 5.19985,11.44476 6.04558,16.05729 l 0.44769,2.4416 z"
     id="path3897" /><path
     style="fill:#383639;fill-opacity:1;stroke-width:0.651092"
     d="m 247.83604,158.76169 c -1.26002,5.21246 -5.37552,13.48828 -8.93733,17.97197 -5.28751,6.65598 -12.904,11.85339 -21.58887,14.73187 -4.56232,1.51216 -6.25916,1.72636 -13.67293,1.72636 -7.42651,0 -9.10277,-0.21239 -13.67293,-1.73275 -7.17263,-2.38619 -12.75935,-5.83 -18.18698,-11.2111 -6.66039,-6.60328 -10.8343,-14.57213 -13.04208,-24.90015 l -0.45236,-2.11605 h 9.49256 c 8.83063,0 9.49258,0.0847 9.49258,1.21468 0,2.59883 4.62113,10.44143 7.87772,13.36933 10.84531,9.75088 26.16095,9.79828 36.87449,0.11416 3.05902,-2.76512 6.69006,-8.74606 8.2315,-13.55866 0.32467,-1.01368 1.37307,-1.13941 9.50067,-1.13941 6.90343,0 9.12245,0.19878 9.08147,0.81386 -0.0299,0.44763 -0.47871,2.5698 -0.99751,4.71599 z"
     id="path3895" /><path
     style="fill:#383639;fill-opacity:1;stroke-width:0.651092"
     d="m 205.26464,234.61833 h -43.62315 v -9.1153 -9.11528 h 43.62315 43.62315 v 9.11528 9.1153 z"
     id="path3893" /><path
     style="fill:#383639;fill-opacity:1;stroke-width:0.651092"
     d="m 240.27865,289.31003 h -8.77901 l -0.36592,-6.13321 c -0.54553,-9.14373 -2.54016,-12.25702 -7.92812,-12.3744 -2.00925,-0.0435 -2.26843,-0.26785 -2.64977,-2.29139 -0.60266,-3.19789 -3.23381,-8.12256 -5.94042,-11.11843 l -2.32323,-2.57154 1.85773,-0.82162 c 1.12821,-0.499 4.67628,-0.82227 9.0352,-0.82331 6.79473,0 7.40824,0.11195 11.50589,2.13004 5.44743,2.6829 10.29158,7.8124 12.28451,13.00829 1.12568,2.93488 1.50488,5.60187 1.75865,12.36861 l 0.32351,8.62696 z"
     id="path3891" /><path
     style="fill:#383639;fill-opacity:1;stroke-width:0.651092"
     d="m 205.26464,319.26027 h -43.62315 v -9.1153 -9.11528 h 43.62315 43.62315 v 9.11528 9.1153 z"
     id="path3889" /><path
     style="fill:#383639;fill-opacity:1;stroke-width:0.651092"
     d="m 239.59,371.9987 c -9.34936,0 -9.44647,-0.0143 -9.824,-1.51922 -0.20972,-0.83556 -1.58013,-2.88114 -3.04536,-4.54575 -4.53382,-5.15068 -5.00245,-5.21989 -37.24498,-5.50026 l -27.83417,-0.24193 v -9.07155 -9.07151 l 27.18309,0.0227 c 28.6232,0.024 33.81372,0.42511 39.87937,3.08245 4.03726,1.76878 9.57011,6.06019 12.57868,9.75629 2.88047,3.53877 6.62321,11.0545 7.29413,14.64717 l 0.45594,2.44159 H 239.59 Z"
     id="path3887" /><path
     style="fill:#383639;fill-opacity:1;stroke-width:0.651092"
     d="m 247.30346,390.42604 c -3.75427,9.13014 -9.41438,15.68536 -16.73385,19.3802 -7.23106,3.65024 -9.24579,3.84218 -40.44286,3.85271 l -28.48526,0.01 v -9.08354 -9.08353 l 28.48526,-0.22713 c 22.59627,-0.18007 29.01616,-0.41924 31.05316,-1.1564 3.0713,-1.11144 6.37349,-4.26378 8.18393,-7.81255 l 1.31985,-2.58707 h 9.10204 c 10.54873,0 10.34915,-0.17804 7.51773,6.70769 z"
     id="path3885" /><path
     style="fill:#383639;fill-opacity:1;stroke-width:0.651092"
     d="m 239.5042,461.84937 c -8.61153,0 -9.49811,-0.10642 -9.49858,-1.13941 -0.001,-2.2003 -3.87746,-9.30329 -6.75785,-12.38265 l -2.91025,-3.11131 5.32261,-6.94879 c 2.92746,-3.82185 5.56582,-6.96464 5.86304,-6.98397 1.03306,-0.0673 8.12402,7.55673 10.53744,11.32953 2.62744,4.10733 5.74767,12.0341 6.48292,16.46946 l 0.45872,2.76714 z"
     id="path3883" /><path
     style="fill:#383639;fill-opacity:1;stroke-width:0.651092"
     d="m 247.83604,478.44775 c -1.26002,5.21249 -5.37552,13.48829 -8.93733,17.97197 -5.29508,6.66553 -12.92451,11.86772 -21.58887,14.72051 -4.54682,1.49709 -6.28436,1.71522 -13.67293,1.71651 -7.35074,0.001 -9.1304,-0.21905 -13.52843,-1.67475 -14.09647,-4.66581 -25.12533,-15.60592 -29.38523,-29.14878 -0.8448,-2.68575 -1.73956,-5.8354 -1.98833,-6.99923 l -0.45236,-2.11605 h 9.49256 c 8.06465,0 9.49258,0.14914 9.49258,0.99092 0,0.54502 0.8612,2.89027 1.91377,5.21172 4.86903,10.73843 17.28947,17.39321 28.70841,15.38181 10.58798,-1.86503 18.58682,-9.18339 22.34613,-20.44503 0.33812,-1.01296 1.39433,-1.13942 9.51607,-1.13942 6.90343,0 9.12245,0.19879 9.08147,0.81387 -0.0299,0.44762 -0.47871,2.5698 -0.99751,4.71595 z"
     id="path3881" /><path
     style="fill:#466697;fill-opacity:1;stroke-width:0.651092"
     d="m 226.56018,567.32622 h -22.3276 l -8.66307,-6.34812 c -4.76469,-3.49147 -9.49755,-6.93413 -10.51749,-7.65033 -1.01993,-0.7162 -6.69625,-4.81808 -12.61405,-9.11528 l -10.75963,-7.81311 -0.0183,-10.90578 c -0.01,-5.99819 0.12878,-10.9058 0.30867,-10.9058 0.17987,0 8.84906,6.22607 19.26477,13.83571 10.41575,7.60964 19.75568,14.42168 20.75542,15.13788 0.99976,0.7162 3.15082,2.25441 4.78016,3.41824 l 2.96242,2.11605 h 19.57822 19.5782 v 9.11528 9.11526 z"
     id="path3879" /><path
     style="fill:#466697;fill-opacity:1;stroke-width:0.651092"
     d="m 223.78934,678.66295 h -25.09843 l 8.00728,-9.10476 8.00729,-9.10479 17.09115,-0.01 17.09116,-0.01 v 9.11528 9.11528 z"
     id="path3877" /><path
     style="fill:#466697;fill-opacity:1;stroke-width:0.651092"
     d="m 241.72578,713.17081 -7.16201,3.53377 v 12.87962 12.87962 l -8.78974,-4.38063 -8.78973,-4.38062 v -3.75497 c 0,-2.06522 -0.21975,-3.74571 -0.48832,-3.73445 -0.26858,0.0123 -8.79683,4.34816 -18.95164,9.63753 l -18.46334,9.617 -5.62706,-2.87934 c -3.0949,-1.58364 -7.4485,-3.87847 -9.67472,-5.09962 l -4.04763,-2.22026 9.90746,-5.13593 c 5.44912,-2.82476 10.34695,-5.23306 10.8841,-5.35178 0.53715,-0.11858 1.12645,-0.41295 1.30955,-0.65389 0.34608,-0.4554 63.90933,-33.34046 65.91569,-34.10212 1.05454,-0.40031 1.1394,0.31399 1.1394,9.58989 v 10.02242 z"
     id="path3875" /><path
     style="fill:#466697;fill-opacity:1;stroke-width:0.651092"
     d="m 248.49982,780.88436 c -0.23205,0 -11.73959,-5.82536 -25.57233,-12.94527 -13.83272,-7.11989 -26.75447,-13.75051 -28.71497,-14.73467 l -3.56456,-1.78943 9.42439,-4.76389 c 9.21223,-4.65669 11.70321,-5.53844 11.70321,-4.14272 0,0.37925 0.22151,0.55261 0.49224,0.38528 0.27074,-0.16725 8.54774,3.84404 18.39334,8.9141 l 17.9011,9.21831 0.17966,9.92914 c 0.0989,5.46103 -0.01,9.92915 -0.24216,9.92915 z"
     id="path3873" /><path
     style="fill:#466697;fill-opacity:1;stroke-width:0.651092"
     d="m 216.49598,641.12164 -33.04292,37.49925 -11.96222,0.021 -11.96224,0.021 4.18446,-4.72041 c 2.30147,-2.59623 10.14037,-11.45921 17.41977,-19.69553 7.27942,-8.23631 15.06883,-17.02605 17.30981,-19.53275 2.241,-2.50671 5.87483,-6.60858 8.07521,-9.11528 l 4.00068,-4.55765 -24.43854,-0.17051 -24.4385,-0.1705 v -8.78193 -8.7819 h 43.9487 c 24.17178,0 43.9487,0.10949 43.9487,0.24304 0,0.13367 -14.86932,17.11771 -33.04291,37.7423 z"
     id="path3871" /></g></svg>
